<svg xmlns="http://www.w3.org/2000/svg" fill="none" viewBox="0 0 70 32">
  <path d="M12.605 32H49.78c4.044 0 7.45-.378 9.862-2.79 2.412-2.413 2.767-5.772 2.767-9.816v-6.788c0-4.044-.355-7.403-2.767-9.815C57.23.378 53.824 0 49.78 0H12.557C8.584 0 5.18.378 2.767 2.79.355 5.204 0 8.586 0 12.536v6.859c0 4.044.355 7.403 2.767 9.815S8.584 32 12.605 32zm-.639-3.808c-2.436 0-4.99-.331-6.432-1.75-1.42-1.443-1.727-3.974-1.727-6.41v-8.017c0-2.484.308-5.014 1.727-6.457 1.442-1.443 4.02-1.75 6.503-1.75h38.406c2.435 0 4.99.33 6.408 1.75 1.443 1.443 1.75 3.95 1.75 6.386v8.088c0 2.436-.307 4.967-1.75 6.41-1.419 1.419-3.973 1.75-6.408 1.75H11.966zm53.659-6.078C67.493 21.995 70 19.607 70 15.988c0-3.595-2.507-5.984-4.375-6.102v12.228z" fill="#1792D9"/>
  <path d="M10.713 25.449h16.341c1.632 0 2.578-.237 3.24-.9.662-.662.922-1.607.922-3.24V10.69c0-1.632-.26-2.578-.922-3.24-.662-.662-1.632-.899-3.24-.899h-16.27c-1.703 0-2.673.237-3.311.9-.662.661-.899 1.631-.899 3.287V21.31c0 1.632.237 2.578.899 3.24.662.662 1.632.899 3.24.899z" fill="#56C667"/>
</svg>
