<svg xmlns="http://www.w3.org/2000/svg" fill="none" viewBox="0 0 42 42">
  <path d="M7.164 42h27.673C39.627 42 42 39.63 42 34.935V7.11C42 2.416 39.627.046 34.837.046H7.164C2.395.046 0 2.393 0 7.11v27.825C0 39.653 2.395 42 7.164 42z" fill="#000" fill-opacity=".85"/>
  <path d="M7.985 19.462l-1.757-1.8c-.296-.297-.342-.684-.091-1.026 3.194-3.92 9.08-6.518 14.897-6.518 5.795 0 11.68 2.598 14.875 6.518.273.342.228.73-.069 1.025l-1.756 1.778c-.343.342-.822.365-1.164.023-3.057-3.328-7.232-5.06-11.886-5.06-4.654 0-8.783 1.755-11.863 5.037-.365.387-.89.387-1.186.023z" fill="#1792D9"/>
  <path d="M13.346 24.84l-1.985-2.006c-.274-.296-.32-.683-.068-.98 2.144-2.597 5.886-4.261 9.741-4.261 3.833 0 7.597 1.664 9.719 4.262.274.273.25.706-.046.98l-1.985 2.005c-.365.364-.82.364-1.186-.023-1.62-1.8-4.13-2.94-6.502-2.894-2.418-.046-4.882 1.094-6.479 2.871-.388.433-.844.41-1.209.046z" fill="#1792D9"/>
  <path d="M21.034 31.927c-.365 0-.639-.136-1.163-.683l-3.149-3.031c-.25-.251-.319-.593-.136-.866.98-1.345 2.714-2.234 4.448-2.234 1.711 0 3.445.866 4.38 2.12a.71.71 0 01-.068.98l-3.125 3.03c-.57.57-.822.684-1.187.684z" fill="#1792D9"/>
</svg>
